<?xml version="1.0" encoding="UTF-8"?>
<svg width="29px" height="27px" viewBox="0 0 29 27" version="1.1" xmlns="http://www.w3.org/2000/svg" xmlns:xlink="http://www.w3.org/1999/xlink">
    <title>Tooltip Icon@1.5x</title>
    <defs>
        <path d="M23.761365,3.53571429 C24.810706,3.53571429 25.661365,4.38637326 25.661365,5.43571429 L25.6615651,6.67941335 C26.9674913,6.93954484 27.9517062,8.09205572 27.9517062,9.47444231 L27.9511429,10.2397143 C29.4563832,10.3268492 30.6428571,11.5675302 30.6428571,13.085327 L30.6428571,26.5118012 C30.6428571,28.0858128 29.3668687,29.3618012 27.7928571,29.3618012 L5.20714286,29.3618012 C3.63313132,29.3618012 2.35714286,28.0858128 2.35714286,26.5118012 L2.35714286,13.085327 C2.35714286,11.5645187 3.54832972,10.3219269 5.04859252,10.2396627 L5.04829381,9.47444231 C5.04829381,8.09205572 6.03250875,6.93954484 7.33843494,6.67941335 L7.33863505,5.43571429 C7.33863505,4.38637326 8.18929402,3.53571429 9.23863505,3.53571429 L23.761365,3.53571429 Z M25.0988386,8.44054587 L7.82303205,8.44054587 C7.29836154,8.44054587 6.87303205,8.86587536 6.87303205,9.39054587 L6.87303205,9.39054587 L6.87303205,10.3420857 L26.0488386,10.3420857 L26.0488386,9.39054587 C26.0488386,8.86587536 25.6235091,8.44054587 25.0988386,8.44054587 L25.0988386,8.44054587 Z M23.1989345,4.8508799 L9.88858882,4.8508799 C9.36391831,4.8508799 8.93858882,5.27620939 8.93858882,5.8008799 L8.93858882,5.8008799 L8.93858882,6.75928572 L24.1489345,6.75928572 L24.1489345,5.8008799 C24.1489345,5.27620939 23.723605,4.8508799 23.1989345,4.8508799 L23.1989345,4.8508799 Z M14.3814344,23.0093785 L14.3814344,17.0643554 C14.3814344,16.9069542 14.5090332,16.7793554 14.6664344,16.7793554 C14.7186296,16.7793554 14.7698226,16.7936891 14.8144289,16.8207931 L19.7064444,19.7933046 C19.8409601,19.8750398 19.8837473,20.0503458 19.8020121,20.1848615 C19.7782796,20.2239193 19.7455021,20.2566968 19.7064444,20.2804292 L14.8144289,23.2529408 C14.6799132,23.3346759 14.5046072,23.2918888 14.422872,23.157373 C14.3957681,23.1127667 14.3814344,23.0615737 14.3814344,23.0093785 Z" id="path-1"></path>
    </defs>
    <g id="Show-Pages" stroke="none" stroke-width="1" fill="none" fill-rule="evenodd">
        <g id="Tooltip-Icon" transform="translate(-2.000000, -3.000000)">
            <mask id="mask-2" fill="white">
                <use xlink:href="#path-1"></use>
            </mask>
            <use id="Show-icon" fill="#714B4B" xlink:href="#path-1"></use>
            <g id="Group" mask="url(#mask-2)">
                <g transform="translate(1.178571, 1.178571)" id="Color/Grey/0">
                    <rect id="Rectangle" fill="#FFFFFF" x="0" y="0" width="30.6428571" height="30.6428571"></rect>
                </g>
            </g>
        </g>
    </g>
</svg>